<?xml version="1.0" encoding="UTF-8"?>
<svg id="_圖層_2" data-name="圖層 2" xmlns="http://www.w3.org/2000/svg" viewBox="0 0 141.05 27.25">
  <defs>
    <style>
      .cls-1 {
        fill: #3b3b3b;
      }
    </style>
  </defs>
  <g id="content">
    <g>
      <g>
        <path class="cls-1" d="M14.93,22.81c.25,.28,.4,.51,.4,.73s-.11,.48-.34,.7c-.17,.17-.42,.26-.73,.26-.5-.11-.82-.28-.96-.51-.2-.45-.31-.88-.34-1.27,.09-.28,.37-.39,.84-.39,.31,0,.68,.14,1.13,.48m-5.05-14.42h.79c.51,0,1.02,0,1.53-.03v-.9c-.79,0-1.55,.03-2.23,.03-.03,.31-.06,.62-.09,.91m2.48,2.48c-.05-.34-.08-.65-.08-.93-.91,.03-1.75,.03-2.6,.03-.06,.37-.09,.68-.12,.93,1.13,0,2.06,0,2.79-.03m-.99,7.93c.17,.11,.28,.23,.37,.39,0,.34-.42,.54-1.27,.59-.45,0-.85,0-1.13-.03,0,.25,.03,.48,.03,.7,.09,.03,.17,.05,.26,.05,.68,.11,1.32,.17,1.89,.17,.28,0,.93-.08,1.95-.31,.62-.14,.96-.42,1.05-.82,0-1.95-.2-3.1-.54-3.47-.11-.42-.37-.68-.71-.76-.51-.14-.85-.22-.96-.22-.31,0-.79,.08-1.41,.2-.73,.11-1.27,.2-1.61,.23,.08,.31,.14,.53,.17,.65v.31c.11,0,.22-.02,.31-.02,.51-.06,.9-.09,1.13-.09,.19,0,.42,.11,.68,.31,.17,.12,.26,.26,.26,.4,0,.22-.26,.42-.7,.62-.28,.17-.88,.25-1.78,.28v.7c.28,0,.62-.03,.98-.03,.4,0,.76,.06,1.05,.14m-2-4.78c1.01-.16,1.69-.25,1.98-.25,1.44,0,2.71,.14,3.78,.37,.82,.17,1.27,.53,1.33,1.13,.28,.59,.45,2.03,.5,4.32,0,.93-.48,1.55-1.44,1.87-1.02,.39-2.37,.62-4.07,.62,0,.11,.03,.25,.03,.37-.05,.45-.36,.96-.93,1.49-.59,.51-1.27,.79-2.06,.79-.22-.03-.4-.17-.48-.45,0-.73,.22-1.35,.73-1.92,.17-.17,.4-.34,.62-.51-.2-.03-.37-.08-.54-.17-.09,.09-.17,.17-.23,.23-.4,.31-.79,.48-1.21,.48-.68,0-1.1-.42-1.33-1.33,0-.2,0-.39,.03-.62-.06-.62-.11-1.27-.17-1.94,0-.59,.09-1.33,.28-2.21,.11-.73,.25-1.3,.42-1.63,.11-.22,.37-.39,.74-.48,.37-.08,.65-.15,.88-.15,.14,0,.28,.09,.4,.2,.2-.06,.45-.14,.73-.2M4.43,3.13c.11,.17,.2,.28,.28,.39,1.63-.34,3.08-.56,4.26-.68-.03-.06-.03-.08-.03-.11-.08-.42-.11-.9-.11-1.41,.06-.37,.31-.7,.76-1.02,.96-.2,1.69-.31,2.2-.31,.51,.08,.99,.31,1.44,.71,.62,.34,.93,.7,.93,1.04,0,.4-.06,.76-.17,1.04,2.2,.06,3.5,.11,3.95,.2,1.07,.14,1.84,.45,2.31,.93,.45,.54,.73,1.07,.85,1.58v1.38c0,.39-.12,.67-.34,.85-.34,.28-.71,.43-1.07,.43s-.65-.18-.88-.57c-.34-.59-.56-1.13-.62-1.58-.11-.42-.42-.68-.93-.79-.9-.26-2.04-.45-3.39-.59,.06,.08,.14,.14,.2,.2,.26,.31,.45,.57,.6,.76,.11,.03,.22,.03,.36,.03,1.08,.06,1.75,.14,2.06,.25,.17,.12,.28,.23,.37,.4,0,.62-.9,.99-2.65,1.13-.03,.34-.06,.65-.09,.96h.62c.73,.06,1.13,.34,1.13,.85-.02,.22-.14,.37-.31,.42-.22,.11-.42,.17-.65,.2-.34,.03-.68,.03-.96,.03-.05,.34-.08,.65-.11,.9h.06c1.1-.09,2.06-.14,2.88-.14,1.75,.05,2.65,.34,2.65,.87-.06,.4-.51,.65-1.33,.82-.74,.28-1.3,.47-1.7,.56,.37,.42,.93,.9,1.7,1.41,.62,.26,.96,.51,.96,.76,0,.23-.22,.34-.65,.34-.93-.06-1.75-.37-2.43-.87-.62-.28-1.21-.79-1.84-1.58-.28,0-.53-.03-.82-.06-1.27,.06-2.8,.08-4.6,.08-.29,0-.54,.03-.76,.03-.28,.23-.65,.45-1.1,.68-.62,.42-1.3,.9-2.09,1.46-1.36,.76-2.43,1.16-3.22,1.19-.34,0-.51-.23-.51-.68,.14-.65,1.07-1.55,2.79-2.71-1.41-.17-2.12-.68-2.12-1.47,.03-.31,.68-.56,1.98-.73,1.1,0,2.14,.06,3.16,.14,0-.28-.03-.56-.06-.85h-.19c-.57-.03-.99-.14-1.33-.34-.4-.17-.56-.45-.56-.79,.11-.25,.45-.42,1.04-.48h.96v-.9h-.85c-.56-.06-1.02-.14-1.41-.28-.37-.11-.57-.34-.59-.68,0-.2,.17-.4,.48-.59,.31-.11,.62-.17,.93-.2h1.55c.06-.22,.14-.48,.25-.79,.14-.25,.31-.4,.48-.4,.39,0,.73,.17,1.05,.48,.2,.25,.36,.48,.5,.65,1.05-.03,1.89-.06,2.55-.09,.05-.26,.14-.54,.28-.87,.05-.09,.08-.15,.14-.2-1.07-.05-2.23-.09-3.44-.09-1.72,.11-3.25,.28-4.6,.45-.03,.06-.06,.09-.06,.09-.23,.42-.54,.96-.93,1.64-.6,1.02-1.1,1.53-1.56,1.53s-.99-.23-1.61-.74c-.34-.28-.51-.65-.51-1.1,.28-.84,.96-1.95,2.06-3.25,.09-.22,.28-.39,.59-.53,.34-.12,.62-.17,.85-.17,.2,.06,.5,.31,.93,.76"/>
        <path class="cls-1" d="M44.35,6.38c0,.17-.11,.37-.34,.59-.12,.28-.4,.54-.85,.76-.71,.59-1.52,.9-2.48,.96-.34,0-.62-.11-.85-.4-.17-.17-.28-.37-.31-.62,0-.51,.23-1.07,.73-1.66,.39-.4,1.04-.76,1.95-1.1,1.41,0,2.15,.51,2.15,1.47m-11.24,7.76c.45,.4,.67,.68,.67,.85,0,.34-.03,.71-.08,1.13-.05,.56-.11,1.33-.2,2.29,.08,.06,.17,.14,.28,.2,.51,.25,1.13,.36,1.9,.36,1.18,0,1.89-.11,2.06-.36,.45-.17,.68-.65,.68-1.5,0-.31-.17-.51-.48-.56-.28-.2-1.02-.37-2.14-.48-.48-.12-.82-.32-1.02-.6-.23-.08-.31-.28-.31-.59,0-.39,.36-.65,1.1-.79,.28,0,1.04,.14,2.23,.37,1.07,.28,1.73,.51,1.95,.62,.42,.11,.65,.96,.65,2.6,0,.9-.23,1.52-.62,1.86-.42,.34-1.02,.56-1.78,.62-.82,.11-1.63,.2-2.45,.28-.56,0-1.3-.2-2.21-.59-.06,.17-.08,.28-.11,.34-.2,.28-.48,.39-.87,.39s-.7-.2-.96-.59c-.17-.37-.31-.96-.37-1.78-.11-.79-.14-1.8-.14-3.08,0-.84,.37-1.27,1.16-1.29,.42,.03,.79,.14,1.07,.31m3.67-11.49c.82,.57,1.24,1.27,1.24,2.15,0,2.85,0,4.49,.03,4.94-.09,.23-.2,.45-.31,.62,2.94,.17,4.97,.31,6.13,.42,1.41,.42,2.17,2.85,2.25,7.25-.17,2.14-.51,3.24-.96,3.3-.31,.34-.79,.48-1.41,.48-.68-.12-1.42-.65-2.15-1.64-.11-.06-.14-.17-.14-.4,0-.06,.34-.31,1.07-.79,.25-.34,.39-.73,.39-1.21-.2-2.66-.51-4.12-.93-4.38,0-.2-1.04-.45-3.08-.74-.96-.17-1.86-.25-2.71-.31-.62,0-1.3,.09-2.04,.2-.73,.27-1.33,.39-1.78,.39-.39,0-1.15-.14-2.23-.46-.79-.14-1.19-.34-1.21-.62,0-.28,.28-.62,.85-.96,.51-.23,.93-.37,1.3-.48,.26-.03,1.1-.06,2.51-.09-.14-.37-.2-.79-.2-1.27,.03-1.78,.14-3.58,.36-5.39,0-.91,.4-1.56,1.25-1.9,.71,0,1.3,.29,1.75,.85m-5.14,3.45c.56,.68,.84,1.38,.84,2.12-.17,.51-.73,.76-1.69,.76-1.02-.14-1.83-.48-2.48-.99-.68-.56-.99-1.52-.99-2.93,.23-.39,.79-.59,1.75-.59,1.05,.34,1.89,.87,2.57,1.64m-3.39,5.03c.34,.51,.56,1.15,.65,1.98,.11,.76,.17,1.49,.23,2.2v1.67c.11,1.13,.17,1.89,.17,2.31,0,.31-.11,.54-.33,.68-.23,.17-.54,.42-.99,.76-.48,.48-.87,.71-1.21,.71-.34-.06-.6-.26-.76-.65-.2-.34-.28-.84-.28-1.49,0-1.58,0-2.97,.03-4.15,0-.67,.06-1.75,.14-3.22,.03-.26,.09-.54,.17-.85,.06-.31,.23-.51,.51-.59,.79,.11,1.35,.34,1.69,.65"/>
        <path class="cls-1" d="M69.18,18.36c.21,.1,.35,.26,.35,.5,0,.33-.11,.78-.27,1.37-.13,.64-.34,1.39-.67,2.3,.03,.48,.27,.78,.75,.89,.8,0,1.2,.08,1.2,.24,0,.53-.77,.8-2.3,.8-.96-.21-1.47-.83-1.52-1.87,0-.4,.08-.88,.24-1.42,.11-.43,.3-.99,.56-1.71,.24-.67,.46-1.07,.62-1.17,0-.06,.13-.08,.45-.13,.24,0,.43,.08,.59,.22m-.73-10.19c.67,.13,1.28,.29,1.87,.48,.48,.37,.73,.96,.78,1.71,0,.38-.3,.72-.85,1.04-.69,.27-1.26,.4-1.74,.4-1.17,.06-2.22,.06-3.12,.06-3.13-.27-4.68-.88-4.68-1.9,0-.9,.88-1.52,2.7-1.84,.86,0,1.84-.03,2.97-.11,.75,0,1.45,.05,2.09,.16m-4.7,10.96c0,.35-.16,.88-.48,1.6-.08,.59-.21,1.15-.37,1.68-.22,.45-.45,.86-.78,1.2-.32,.59-.67,.88-1.04,.88s-.64-.16-.83-.51c-.19-.24-.27-.58-.27-1.04,.11-1.01,.41-1.92,.88-2.78,1.15-1.49,1.87-2.24,2.14-2.24,.48,.08,.75,.48,.75,1.2m3.5-5.18c1.87,.08,3.07,.24,3.61,.45,.29,.16,.51,.37,.64,.67,0,1.18-1.87,1.87-5.56,2.08-1.18,0-2.22,0-3.18-.05-.99-.1-1.82-.29-2.49-.53-.64-.22-1.02-.59-1.07-1.18,.03-.37,.29-.72,.83-1.07,.56-.19,1.13-.3,1.65-.35,.32,0,.67,0,1.1-.02,.62-.06,1.04-.08,1.31-.11,.67,0,1.71,.05,3.16,.11m-9.76,6.89c-.06,.64-.46,1.02-1.15,1.13-1.66,.24-2.89,.34-3.63,.34-.27,0-.83-.15-1.63-.53-.33-.11-.52-.27-.57-.53,0-.3,.14-.54,.43-.72,.62-.11,1.36-.19,2.28-.3-.06-.16-.06-.35-.06-.56,0-.08-.05-.35-.1-.78,0-.19-.03-.38-.03-.53-.37,0-.74-.03-1.12-.06-.17-.05-.32-.11-.54-.16-.37-.06-.65-.11-.75-.19-.38-.21-.56-.56-.56-1.04,.08-.18,.27-.35,.59-.48,.35-.16,.69-.27,1.07-.3,.45-.05,.88-.08,1.25-.13-.02-.69-.02-1.39-.02-2.08-.27-.06-.56-.11-.83-.19-.22-.06-.46-.1-.75-.22-.59-.05-.94-.16-1.1-.29-.56-.32-.83-.8-.83-1.5,.13-.27,.42-.48,.88-.69,.48-.24,.99-.37,1.52-.43,1.42-.08,2.54-.13,3.39-.13,1.56,.05,2.44,.27,2.65,.64,.58,.53,.9,.91,.9,1.12,0,.43-.35,.83-.99,1.21-.64,.32-1.39,.53-2.2,.64,0,.11,.03,.22,.05,.29,0,.48-.03,.99-.08,1.52,.88,.06,1.39,.19,1.53,.43,.4,.38,.61,.61,.61,.77,0,.3-.24,.56-.7,.83-.45,.24-.99,.4-1.61,.45-.05,.32-.08,.62-.08,.88,0,.32-.03,.56-.03,.78,.59-.03,1.05-.05,1.37-.05,.43,.18,.69,.48,.8,.85"/>
        <path class="cls-1" d="M94.36,20.28c.91,.51,1.36,.99,1.36,1.42,0,.27-.16,.56-.48,.88-.35,.22-.75,.29-1.23,.29-.38,0-.83-.29-1.42-.88-.37-.26-.65-.61-.8-1.04,0-.27,.05-.51,.19-.77,.14-.43,.35-.64,.65-.64,.16,0,.75,.27,1.74,.74m-6.66-10.42c-.03-.22-.03-.45-.03-.7,0-.32,.14-.75,.4-1.26,.4-.56,.83-.85,1.31-.85,.43,0,.75,.35,.99,1.01,.16,.43,.26,1.07,.32,1.93,1.49,.08,2.48,.22,2.94,.4,.27,.16,.46,.35,.56,.61,0,.94-1.23,1.53-3.66,1.79-.03,.13-.05,.24-.05,.33v2.22c1.36,.02,2.84,.02,4.41,.02,.21,0,.43,.08,.64,.21,.19,.16,.3,.32,.3,.53s-.27,.46-.77,.72c-.27,.32-.53,.51-.78,.61-1.17,.4-2.46,.67-3.8,.78v.16c0,.91-.03,1.9-.03,2.92-.05,1.38-.05,2.45-.05,3.2,0,.35-.24,.67-.7,.97-.18,.24-.35,.35-.51,.35-.24,0-.48-.54-.69-1.63-.16-.8-.32-1.9-.43-3.28-.03-.22-.03-.45-.03-.67-.53,.37-1.29,.86-2.22,1.42-.72,.59-1.36,1.04-1.9,1.31-.26,.29-.66,.43-1.2,.43-.13,0-.19-.1-.19-.34,.14-.43,.4-.88,.78-1.39,.03-.17,.45-.62,1.26-1.42,.64-.64,1.26-1.26,1.9-1.87,.03-.03,.05-.06,.1-.11-2.03-.08-3.23-.35-3.55-.81-.32-.21-.62-.61-.83-1.2,.06-.64,.48-1.02,1.26-1.09,1.29,.08,2.75,.13,4.41,.16-.05-.83-.08-1.63-.08-2.43-.35,0-.64-.03-.91-.08-.91-.08-1.66-.24-2.3-.45-.59-.22-.94-.56-.99-1.1,.02-.35,.29-.67,.8-.99,.51-.16,1.01-.27,1.49-.32,.21,0,.43,0,.69-.02,.37,0,.62-.03,.78-.05h.35Zm-11.44,2.67c.13-.11,.27-.19,.43-.27,.93-.48,2.11-.72,3.5-.72,.64,.11,1.1,.78,1.31,1.95,.18,.86,.29,1.85,.29,2.94-.08,1.23-.69,1.93-1.87,2.14-1.26,0-2.06-.03-2.38-.08-.32-.21-.48-.56-.48-1.07,.03-.38,.64-.56,1.81-.56,.49,0,.72-.22,.72-.67-.05-.7-.19-1.31-.35-1.87-.05-.19-.16-.35-.35-.46-.61,.1-1.2,.19-1.76,.24,.08,.26,.14,.45,.14,.58,0,.33-.14,1.02-.4,2.11-.05,.78-.24,1.39-.51,1.84-.19,.33-.46,.59-.78,.75-.38,.19-.7,.27-1.02,.27-.4,0-.69-.78-.85-2.38-.11-1.6-.19-3.21-.24-4.81,.13-.48,.62-.83,1.45-1.01,.35,0,.8,.37,1.33,1.07"/>
        <path class="cls-1" d="M107.33,15.66c.1-.81,.4-1.31,.83-1.5,.72,0,1.34,.21,1.87,.62,.54,.42,.88,.77,1.05,1.07,1.12,.19,2.06,.37,2.86,.56,.86,.18,1.47,.38,1.85,.59,.59,.3,.88,.67,.88,1.15,.03,1.17,.05,2.38,.11,3.58-.06,.75-.43,1.13-1.15,1.13-1.05,0-1.6-.19-1.68-.59,.22-.19,.43-.53,.64-1.07-.03-.88-.1-1.76-.23-2.67-.14-.11-.43-.24-.91-.43-.61-.18-1.36-.32-2.27-.4-.05,.99-.11,2.38-.19,4.17-.11,1.55-.24,2.8-.45,3.74-.11,.64-.59,.96-1.39,.96-.86,0-1.34-.18-1.4-.53-.1-.27-.21-.7-.32-1.29-.08-.38-.11-.64-.11-.86-.05-2.57-.05-4.7-.05-6.41-.61,0-1.23-.03-1.87-.05-.75,0-1.23-.27-1.44-.83,.11-.32,.32-.56,.67-.72,.49-.11,.88-.16,1.2-.21h1.53Zm-3.74,1.92c.37,.22,.56,1.2,.56,2.94,0,1.23-.24,2.16-.67,2.78-.16,.67-.78,.99-1.85,.99-.8,0-1.26-.81-1.36-2.47,.03-2.78,.1-4.3,.24-4.62,.24-.59,.73-.94,1.45-1.07,.48,.13,1.04,.61,1.63,1.45m2.7-8.16c.22,.03,.4,.05,.59,.05-.05-.59-.08-1.26-.08-2.03,0-1.28,.56-1.95,1.74-2.01,.67,.05,1.23,.22,1.66,.49,.7,.59,1.04,1.04,1.04,1.31,0,.29-.08,.64-.19,1.01-.05,.43-.14,.91-.21,1.47,.93,.1,1.87,.21,2.78,.26,1.84,.08,3,.13,3.45,.16,.54,.24,.88,.67,1.01,1.31,0,.4-.32,.72-.91,.96-.4,.27-.91,.46-1.49,.53-.7,.08-1.34,.22-1.98,.4-.59,.11-1.18,.22-1.77,.27-.7,0-1.44,.02-2.19,.08-.72,.11-1.39,.16-1.98,.16-1.84,0-3.72-.27-5.62-.8-1.87-.43-2.85-1.1-2.96-2.03,.11-.48,.45-.91,1.07-1.25,1.18-.43,2.08-.65,2.7-.65,.7,0,1.82,.11,3.34,.29"/>
        <path class="cls-1" d="M140.27,22.82c.43,.29,.67,.64,.7,1.06,.05,.22,.08,.51,.08,.86,0,.24-.13,.4-.4,.51-.37,.21-.75,.32-1.09,.32-.43,0-.93-.19-1.58-.62-.48-.34-.8-.72-1.02-1.15-.1-.29-.13-.58-.13-.85,.02-.19,.18-.29,.45-.35,.37-.05,.67-.1,.88-.1,.64,0,1.34,.1,2.11,.32m-8.95-3.59c.11-.55,.29-.88,.53-.93,.27,0,.51,.16,.72,.43,.42,.24,.72,.43,.83,.56,1.39,.03,2.91,.03,4.54,.03,.21,0,.46,.08,.7,.24,.21,.16,.35,.35,.35,.56,0,.24-.3,.51-.86,.81-.32,.37-.59,.58-.85,.69-.96,.42-2,.69-3.08,.8,.05,.7,.08,1.71,.08,2.99-.32,1.17-.75,1.79-1.29,1.84-.26,0-.64-.16-1.09-.48-.32-.26-.45-.67-.45-1.2-.05-1.02-.08-2.06-.11-3.1-.69,0-1.28-.03-1.76-.08,0,.16,.02,.29,.02,.46,0,.26-.13,.64-.37,1.12-.05,.38-.16,.78-.29,1.16-.19,.32-.4,.58-.64,.8-.27,.4-.54,.62-.86,.62-.35,0-.61-.19-.83-.51-.18-.24-.27-.59-.27-1.05,.08-.67,.32-1.28,.75-1.84,.38-.37,.7-.7,.96-.93-.85-.14-1.39-.35-1.61-.65-.35-.26-.64-.69-.91-1.31,.05-.71,.51-1.12,1.36-1.2,1.28,.11,2.75,.16,4.41,.19m-6.61-6.33c-.19,0-.4-.08-.67-.26-.16-.22-.35-.46-.53-.75-.11-.1-.27-.26-.48-.48-.07-.16-.1-.29-.1-.45,0-.99,.56-1.74,1.68-2.25,.4-.18,1.2-.4,2.38-.67,.51-.06,1.02-.16,1.5-.32,.54-.03,.99-.06,1.39-.06,.16,.03,.34,.11,.56,.27,.08,.05,.13,.13,.19,.19,.21-.38,.75-.62,1.61-.78h1.44c-.08-.37-.11-.8-.11-1.31,0-.16,.08-.32,.24-.48,.19-.17,.4-.32,.64-.49,.59-.18,1.07-.29,1.39-.29,.35,0,.67,.16,.96,.48,.51,.43,.78,.97,.78,1.55,0,.16-.06,.35-.11,.53,.16,.03,.32,.05,.48,.05,.64,.08,1.23,.19,1.79,.29,.45,.24,.69,.59,.72,1.07,0,.27-.26,.48-.8,.67-.67,.19-1.23,.27-1.68,.27s-.93,.03-1.36,.03c0,.06,.03,.08,.03,.13v.67c.32,.06,.61,.08,.83,.11,.94,.16,1.42,.48,1.42,1.01,0,.38-.75,.65-2.22,.78,0,.24,.03,.48,.03,.72,.59-.02,1.04-.05,1.36-.05,.27,0,.53,.17,.86,.43,.24,.16,.37,.32,.37,.51,0,.3-.32,.56-.93,.83-.38,.13-.91,.21-1.63,.27,0,.32,.03,.61,.05,.86,.19,0,.38,.03,.56,.03,1.29,.05,2.14,.13,2.51,.29,.19,.11,.32,.27,.43,.49,0,.8-1.28,1.28-3.85,1.44-1.58,0-2.99-.05-4.27-.18-.7-.08-1.28-.22-1.74-.38-.45-.13-.7-.4-.75-.8,.03-.27,.22-.51,.59-.75,.37-.11,.78-.19,1.15-.24,.51,0,1.07,.03,1.71,.03h1.58c-.05-.21-.08-.37-.08-.51-.03-.05-.03-.11-.03-.16-.58,.03-1.23,.03-1.9,.03-.56-.1-.99-.27-1.31-.48-.4-.21-.59-.43-.59-.64,0-.11,.08-.24,.29-.4,.27-.19,.62-.32,1.02-.4,.75,0,1.45,0,2.14-.03-.05-.26-.08-.51-.11-.74h-1.18c-1.55,0-2.3-.43-2.3-1.31,0-.62,.91-.94,2.73-.94,.21,0,.4,.03,.59,.03v-.19c0-.19,0-.34,.03-.51-1.9-.16-3-.42-3.32-.8-.08,.56-.32,1.04-.69,1.47-.27,.48-.7,.94-1.28,1.33-.19,.11-.35,.19-.48,.25,.18,.24,.32,.54,.43,.85,0,.62,.02,1.37,.08,2.25,.1,.54,.19,1.07,.24,1.61-.05,.46-.3,.67-.75,.67-.38,0-.83-.56-1.42-1.71-.21-.43-.37-.96-.48-1.6-.03-.43-.08-.86-.13-1.29-.56,.16-1.04,.24-1.47,.24"/>
        <path class="cls-1" d="M47.44,7.84c.04-.23,.05-2.81,.05-4.21v-1.31c-.91,0-2.04,.05-2.25,.08v-.75c.32,.07,2.2,.1,2.29,.1h.69c.15,0,1.89-.04,2.24-.1v.75c-.11-.04-1.58-.08-2.25-.08v1.46c0,1.79,.08,3.9,.09,4.07h-.86Z"/>
        <path class="cls-1" d="M50.87,7.37c.73-.16,1.66-.49,1.66-1.09,0-.39-.25-.58-.77-.86-.62-.34-1.08-.65-1.08-1.2,0-.84,1.11-1.57,2.13-1.78l.16,.62c-.47,.08-1.56,.38-1.56,1.03,0,.41,.52,.61,.84,.81,.54,.34,1.03,.57,1.03,1.2,0,.78-.81,1.56-2.22,1.88l-.18-.61Z"/>
        <path class="cls-1" d="M57.15,5.55c-.07-.17-.92-1.86-.98-1.98-.1,.18-.89,1.96-.96,2.08l1.94-.09Zm-3.59,2.06c.38-.75,2.45-5,2.61-5.29h.02c.61,1.07,2.33,4.45,2.8,5.24l-.65,.43c-.13-.28-.87-1.77-.95-1.9l-2.45,.1c-.1,.24-.66,1.55-.77,1.8l-.61-.39Z"/>
        <path class="cls-1" d="M60.44,5.57c0,.75,.03,2.1,.04,2.27h-.74c.01-.33,.02-2.08,.02-2.28v-.81c0-.13-.02-1.99-.04-2.17h.77c-.02,.13-.04,1.27-.04,2.17v.81Z"/>
      </g>
      <polygon class="cls-1" points="61.63 1.51 62.27 1.83 61.49 3.36 61.19 3.2 61.63 1.51"/>
      <g>
        <path class="cls-1" d="M62.53,7.37c.73-.16,1.66-.49,1.66-1.09,0-.39-.25-.58-.78-.86-.62-.34-1.07-.65-1.07-1.2,0-.84,1.1-1.57,2.13-1.78l.15,.62c-.47,.08-1.55,.38-1.55,1.03,0,.41,.52,.61,.83,.81,.55,.34,1.02,.57,1.02,1.2,0,.78-.8,1.56-2.22,1.88l-.18-.61Z"/>
        <path class="cls-1" d="M71,5.18c0,.88,.02,2.46,.03,2.66h-.77c.02-.38,.03-2.46,.03-2.68v-.96c0-.14-.03-2.33-.05-2.54h.8c-.02,.15-.04,1.5-.04,2.56v.96Z"/>
        <path class="cls-1" d="M73.53,7.22c1.94-.14,2.9-1.35,2.9-2.44,0-1.16-1.08-1.63-2.9-1.6V7.22Zm-.69-2.69c0-.16,0-1.74-.04-1.95,.41,0,1.15-.01,1.79,.04,2.36,.2,2.56,1.45,2.56,1.97,0,2.4-2.45,3.28-4.36,3.28,.03-.35,.05-2.21,.05-2.41v-.93Z"/>
        <path class="cls-1" d="M80.65,7.92c-.24,0-2.42-.08-2.56-.08,.03-.39,.03-2.01,.03-2.18v-1c0-.12-.02-1.94-.03-2.08,.18,0,2.06-.12,2.42-.15l.03,.64c-.31,0-1.61,.04-1.73,.04v1.83c.13,0,1.05-.03,1.49-.08l.02,.65c-.12,0-.46,0-.8-.02-.32,0-.64,0-.72,0v1.79c.17,0,1.14,.02,1.82-.03l.02,.67Z"/>
        <path class="cls-1" d="M84.57,5.55c-.08-.17-.92-1.86-.99-1.98-.1,.18-.89,1.96-.95,2.08l1.94-.09Zm-3.59,2.06c.38-.75,2.45-5,2.62-5.29h.01c.61,1.07,2.33,4.45,2.8,5.24l-.64,.43c-.13-.28-.88-1.77-.95-1.9l-2.46,.1c-.09,.24-.65,1.55-.76,1.8l-.62-.39Z"/>
      </g>
    </g>
  </g>
</svg>