<?xml version="1.0" encoding="UTF-8"?>
<svg id="_圖層_2" data-name="圖層 2" xmlns="http://www.w3.org/2000/svg" viewBox="0 0 29.64 29.5">
  <defs>
    <style>
      .cls-1 {
        fill: #fff;
      }
    </style>
  </defs>
  <g id="content">
    <path class="cls-1" d="M29.64,14.82C29.64,6.63,23,0,14.82,0S0,6.63,0,14.82c0,7.28,5.25,13.32,12.18,14.57v-10.97h-3.82v-4.42h3.82v-3.26c-.03-.31-.04-.62-.01-.93,.22-2.93,2.77-5.13,5.71-4.92,1.14,0,2.28,.05,3.41,.17v3.95h-2.34c-1.84,0-2.2,.87-2.2,2.15v2.82h3.62v4.42h-3.62v11.08c7.27-.94,12.9-7.15,12.9-14.68Z"/>
  </g>
</svg>