<?xml version="1.0" encoding="UTF-8"?>
<svg id="_圖層_2" data-name="圖層 2" xmlns="http://www.w3.org/2000/svg" viewBox="0 0 33.36 31.77">
  <defs>
    <style>
      .cls-1 {
        fill: #fff;
      }
    </style>
  </defs>
  <g id="content">
    <path class="cls-1" d="M16.63,0C25.9,0,33.36,6.05,33.36,13.56c0,3.66-1.8,6.88-4.63,9.41-4.59,4.54-12.49,9.12-13.32,8.78-1.37-.54,1.02-3.46,.05-4.73-.15-.2-.68-.15-1.66-.29C5.76,25.66,0,20.34,0,13.51,0,6,7.41,0,16.63,0h0ZM7.12,18.05h2.83c.49,0,.78-.39,.78-.88,0-.34-.24-.78-.88-.78h-2.29c-.2,0-.2-.2-.2-.88v-4.93c0-.44-.29-.88-.83-.88-.49,0-.83,.39-.83,.88v5.95c0,1.32,.63,1.51,1.41,1.51Zm6.39-.68v-6.78c0-.44-.34-.88-.88-.88-.44,0-.83,.39-.83,.88v6.78c0,.44,.34,.78,.88,.78,.44,0,.83-.34,.83-.78Zm8-.93v-5.95c0-.44-.34-.78-.88-.78-.39,0-.83,.24-.83,.78v4.29l-2.83-3.95c-.39-.68-.88-1.12-1.46-1.12-.73,0-.78,.59-.78,1.41v6.24c0,.44,.34,.78,.83,.78,.44,0,.83-.29,.83-.78v-4.44l2.83,3.95c.63,.83,.78,1.27,1.56,1.27,.54,0,.73-.49,.73-1.71h0Zm5.46-3.36h-2.49v-1.41c0-.15,.05-.34,.29-.34h2.19c.54,0,.88-.29,.88-.83,0-.63-.49-.83-.93-.83h-2.83c-.88,0-1.32,.59-1.32,1.37v5.51c0,.98,.39,1.51,1.32,1.51h2.88c.63,0,.88-.39,.88-.88,0-.63-.49-.83-.88-.83h-2.15c-.2,0-.34-.15-.34-.29v-1.37h2.58c.63,0,.73-.49,.73-.83,0-.49-.39-.78-.83-.78Z"/>
  </g>
</svg>