<?xml version="1.0" encoding="UTF-8"?>
<svg id="_圖層_2" data-name="圖層 2" xmlns="http://www.w3.org/2000/svg" viewBox="0 0 129.53 42.43">
  <defs>
    <style>
      .cls-1 {
        fill: #fff;
      }

      .cls-2 {
        fill: red;
      }
    </style>
  </defs>
  <g id="content">
    <g>
      <g>
        <path class="cls-1" d="M24.2,.73c1.1,.09,1.69,.37,1.69,.88,0,.18-.36,.46-1.01,.78-.77,.36-1.14,.73-1.14,1.19v.87h10.94c.5-.55,.96-1.06,1.37-1.47,.55-.64,1.01-1,1.28-1,.37,0,1.32,.64,2.79,1.92,1.37,1.09,2.06,1.87,2.06,2.33,0,.36-.37,.64-1.1,.73-.82,0-1.32,.09-1.41,.18-1.01,.5-2.2,1-3.57,1.47,.68,.73,1.06,1.18,1.06,1.37,0,.5-.18,.74-.51,.74h-7.55v2.83h2.33c.09,0,.46-.41,1.1-1.15,.77-.87,1.23-1.32,1.41-1.32,.36,0,1.01,.45,1.88,1.36,.87,.92,1.33,1.47,1.33,1.65,0,.5-.18,.73-.51,.73h-7.55v2.66h7.88c.09,0,.46-.41,1.09-1.19,.78-.83,1.24-1.28,1.42-1.28,.37,0,1,.45,1.91,1.33,.83,.91,1.29,1.51,1.29,1.69,0,.5-.18,.73-.5,.73h-12.82c.83,.46,1.74,.82,2.74,1.19,1.88,.74,3.62,1.19,5.27,1.37,1.73,.32,3.47,.46,5.3,.46l-.18,.92c-1.24,.64-2.06,1.55-2.42,2.79-.23,.77-.5,1.14-.77,1.14-.6,0-1.74-.37-3.48-1.14-.68-.27-1.28-.55-1.83-.92-.27,.46-.41,.83-.41,1.15l.36,8.74c0,.64-.82,1.05-2.43,1.32-.68,.09-1.19,.14-1.51,.14-.74,0-1.15-.36-1.19-1.09H13.77v.18c0,.59-.73,1.01-2.2,1.28-.64,.09-1.15,.13-1.42,.13-1.1,0-1.6-.45-1.6-1.41,.23-2.1,.37-4.21,.37-6.41v-3.56c-.64,.32-1.24,.59-1.88,.82-2.06,.82-4.3,1.47-6.68,2.01l-.36-.74c2.38-.91,4.62-2.15,6.73-3.61,1.92-1.38,3.52-2.97,4.85-4.76H6.77c-2.61,0-4.44,.09-5.54,.18l-.73-1.79c1.47,.23,3.52,.32,6.27,.32h6.63v-2.66c-2.47,0-4.21,.09-5.21,.19l-.69-1.78c1.37,.23,3.34,.32,5.9,.32v-2.83h-.55c-2.61,0-4.44,.09-5.54,.18l-.73-1.79c1.46,.28,3.52,.37,6.27,.37h.55c-.05-1.09-.18-2.24-.37-3.44,1.83,.19,3.62,.47,5.36,.79,1.05,.04,1.6,.32,1.6,.87,0,.18-.32,.41-.91,.69-.73,.32-1.05,.68-1.05,1.09h6.44c-.04-1.09-.18-2.24-.36-3.44,1.83,.19,3.62,.47,5.35,.79,1.06,.04,1.61,.32,1.61,.87,0,.18-.32,.41-.91,.69-.74,.32-1.06,.68-1.06,1.09h2.15c.09-.04,.46-.45,1.1-1.29,.77-.91,1.23-1.41,1.41-1.41,.27,0,.59,.18,1.06,.55,.14-.55,.27-1.05,.37-1.6H6.73c-.09,1.1-.14,1.92-.23,2.47-.18,1.1-.5,1.88-.96,2.33-.28,.28-.6,.37-.92,.37-1.01,0-1.83-.28-2.47-.92-.64-.46-.92-1.19-.92-2.15,0-.32,.37-.73,1.19-1.23,.87-.5,1.55-1.06,2.06-1.69,.46-.55,.87-1.42,1.24-2.61l1.05,.18v1.97h12.17v-.68c0-1.19-.13-2.47-.36-3.76,1.92,.18,3.79,.41,5.63,.73ZM10.43,41.23c-2.29,.42-4.94,.74-7.96,.92l-.14-1.06c2.56-.69,4.8-1.5,6.73-2.43,1.92-.82,3.71-1.92,5.4-3.29,1.7,.73,2.93,1.32,3.76,1.79,1.28,.73,1.96,1.32,1.96,1.78s-.36,.74-1.05,.74l-1.47-.37c-2.65,.91-5.03,1.55-7.22,1.91Zm18.35-15.87v-2.47H13.77v2.47h15.01Zm0,3.93v-2.65H13.77v2.65h15.01Zm0,4.31v-3.02H13.77v3.02h15.01Zm-.36-11.99c.36-.28,.64-.55,.91-.82-.59-.65-1.14-1.33-1.59-2.02h-10.39c-1.05,1.14-2.01,2.1-2.93,2.84h14Zm-3.94-10.88h-6.44v2.83h6.44v-2.83Zm0,6.76v-2.66h-6.44v2.66h6.44Zm7.88,19.31c1.82,.28,3.25,.65,4.34,1.19,.78,.41,1.19,.96,1.19,1.7s-.23,1.32-.59,1.78c-.51,.37-1.1,.56-1.74,.56-.73,0-2.01-.6-3.8-1.74-1.78-1.1-4.53-2.11-8.19-3.11l.36-.88c3.48,.05,6.32,.23,8.42,.5Z"/>
        <path class="cls-1" d="M57.25,6.55c1.47,1.09,2.2,2.11,2.2,2.93,0,1.05-.32,1.92-.91,2.65-.55,.73-1.2,1.1-1.92,1.1-.64,0-1.19-.15-1.7-.42-.36-.28-.82-1.23-1.37-2.88-.65-1.88-2.29-4.12-4.99-6.73l.69-.55c3.79,1.47,6.45,2.79,8,3.89Zm11.99-5.54c1.19,.04,1.83,.37,1.83,.97,0,.18-.36,.46-1.09,.78-.83,.32-1.24,.73-1.24,1.2V15.01h8.97c.41-.5,.73-.91,1-1.28,.88-.92,1.47-1.42,1.83-1.42,.46,0,1.47,.55,3.02,1.65,1.42,1.1,2.15,1.88,2.15,2.29,0,.37-.36,.78-1,1.28-.88,.65-1.29,1.2-1.29,1.74v17.9c0,1.5-.87,2.7-2.61,3.52-1.41,.64-2.56,.97-3.47,.97-.42,0-.78-.6-1.06-1.74-.41-1.38-2.02-2.52-4.85-3.48l.18-.87c2.33,.36,4.26,.55,5.73,.55,.68,0,1.05-.46,1.05-1.46V16.24h-24.3v24.3c0,.55-.77,1.01-2.29,1.33-.68,.09-1.19,.14-1.47,.14-.96,0-1.41-.51-1.41-1.47,.09-1.6,.18-3.16,.18-4.8V19.26c0-2.24-.14-4.44-.37-6.59,2.11,.56,4.3,1.33,6.54,2.33h8.29V4.26c0-1.33-.14-2.7-.37-4.12,2.06,.23,4.07,.5,6.04,.87Zm-5.4,20.23h4.35c.59-.73,1.19-1.38,1.79-1.93,.36-.45,.73-.73,1.09-.73,.32,0,1.15,.41,2.42,1.14,1.47,1.01,2.24,1.7,2.24,2.06,0,.41-.32,.83-.87,1.24-.42,.36-.6,.82-.6,1.27v2.65c0,1.42,.04,3.35,.18,5.73,0,.59-.78,1.05-2.28,1.32-.69,.09-1.2,.14-1.47,.14-.82,0-1.24-.46-1.24-1.46v-.88h-6.63v1.6c0,.59-.74,1-2.15,1.29-.65,.09-1.15,.14-1.42,.14-.96,0-1.42-.47-1.42-1.42,.09-1.56,.19-3.11,.19-4.67v-3.38c0-2.19-.13-4.35-.37-6.41,2.01,.55,4.08,1.33,6.18,2.29Zm5.62,9.33v-8.06h-6.63v8.06h6.63Zm12.5-26.54c1.78,.64,2.7,1.23,2.7,1.82,0,.37-.41,.65-1.24,.79-.82,.18-1.32,.41-1.46,.68-2.11,2.2-4.94,4.21-8.56,6.09l-.91-.74c2.61-3.11,4.34-6.54,5.21-10.38,1.51,.55,2.93,1.14,4.26,1.74Z"/>
      </g>
      <g>
        <path class="cls-2" d="M114.74,4.84s.04,.05,.07,.08c.3,.3,.89,.18,1.22,.15,.07-.01,.13-.02,.2-.02,.06,0,.11-.02,.17-.02,.31-.03,.4,.07,.68,.21,.16,.08,.24,.06,.32,.09,.08,.05,.13,.1,.16,.13,.13,.16,.33,.06,.5-.05,.17-.09,.34-.15,.52-.13,.18,.04,.35,.13,.53,.19,.09,.03,.19,.08,.29,.11,.02,.02,.05,.05,.09,.06,.04,0,.09,0,.13,0,.25,.06,.5,.07,.69-.06,.27-.17,.37-.39,.38-.61,.12-.51-.47-1.07-.8-1.16-.06-.02-.11-.01-.17-.02-.11-.02-.23-.04-.35-.04-.05,0-.11,0-.17,0-.05,0-.1,0-.15,0-.08,0-.16,0-.24,0-.17,.01-.33,.02-.49,0-.07,.09-.18,.15-.29,.18-.04,.02-.09,.03-.13,.04-.35,.02-.55,0-.88-.1-.16-.04-.33,0-.49-.06-.26-.1-.2,.02-.44,.14-.05,0-.17,0-.3,0-.1,0-.2,0-.31,0-.18,.03-.6,.12-.75,.35-.1,.12-.13,.28,.02,.49,0,0,0,0,.01,.02Z"/>
        <path class="cls-2" d="M118.26,18.42c.12-.02,.24-.06,.37-.13,.03-.01,.04-.03,.07-.05,.04-.01,.07-.03,.1-.05,.03-.02,.05-.06,.08-.08,.04-.04,.08-.08,.11-.13,.06-.06,.11-.13,.14-.21,.02-.05,.03-.1,.05-.15,.02-.07,.06-.12,.07-.19,0-.03,0-.06,0-.09,0-.04,0-.07,0-.11,0-.17,0-.32-.05-.46-.07-.31-.2-.54-.44-.69-.07-.05-.12-.06-.17-.07-.06-.03-.1-.07-.15-.09-.04,.05-.07,.07-.1,.09-.11,.03-.22,.09-.36,.13-.06,.02-.12,.03-.18,.07-.01,0-.02,.02-.02,.03-.02,.01-.03,.03-.04,.04-.07,.07-.12,.15-.16,.26,0,.02-.02,.04-.03,.06-.06,.18-.07,.38-.06,.55,0,.16,.05,.4,.11,.62,0,0,0,.03,0,.04h0c.13,.42,.34,.77,.66,.59Z"/>
        <path class="cls-2" d="M109.96,5.08c.04,.07,.09,.12,.13,.16,.06,.07,.12,.13,.2,.19,.05-.03,.1-.03,.16-.04,.15,.02,.31,0,.49,.03h.07c.15,.03,.3,.07,.44,.06,.15,0,.28-.12,.43-.11,.16,0,.31,.13,.48,.09,.26-.05,.56-.43,.69-.83,.05-.13,.07-.27,.06-.38,0-.19-.06-.36-.21-.49-.13-.1-.61-.21-.87-.16-.05,0-.1,.01-.15,.07-.12,.17-.25-.03-.42,.03-.16,.05-.3,.19-.47,.23-.2,.06-.5,0-.74,.05-.06,0-.11,0-.17,.02-.01,.02-.02,.03-.03,.05-.12,.08-.2,.21-.2,.47,0,.04,0,.07,.02,.11,0,.13,.03,.26,.12,.43Z"/>
        <path class="cls-2" d="M127.1,25.68s-.05,0-.08-.02c.03,.08,.02,.2,.1,.23-.04-.06-.09-.13-.02-.2Z"/>
        <path class="cls-2" d="M112.07,19.39s.02-.02,.03-.03c0-.02,.01-.02-.03,.03Z"/>
        <path class="cls-2" d="M129.5,27.59s-.02-.07-.04-.1c.02-.02,.04-.05,.07-.05-.14-.14-.18-.43-.18-.74,.01-.24,.04-.47,.04-.64,0-.04,0-.08,0-.13,0-.11,0-.23,0-.31-.02-.58-.17-1.15-.18-1.72-.03-.67-.08-1.35-.11-2.01-.03-.56-.36-.88-.43-1.41-.02-.43,.01-.87-.05-1.29-.02-.09-.03-.19-.05-.28-.06-.24-.04-.43-.09-.67,0-.03-.02-.05-.02-.09-.03-.3-.13-.54-.15-.81,.02-.14,.05-.32,.1-.54,.07-.22,.14-.56,.18-.93,.1-.59,.13-1.16-.12-1.42-.09-.2-.24-.31-.45-.29-.96,.11-.93,1.61-1.02,2.49-.05,.37,.12,.74,.04,1.09-.05,.17-.07,.31-.07,.49,0,.06-.01,.15-.01,.22-.02,.16-.04,.32-.04,.49-.02,.23-.02,.45,.02,.65,0,.07,0,.16,.03,.23,0,.05,.03,.09,.05,.14,0,.24,.11,.43,.2,.62,.05,.13,.1,.27,.13,.4,.02,.1,.01,.21-.02,.33-.08,.28-.25,.5-.33,.78-.07,.21-.01,.39-.12,.62-.07,.16-.07,.33-.07,.5v.08s.01,.05,.02,.07c.03,.3,.08,.62,0,.92-.04,.12-.04,.36-.02,.59,0,.31,.04,.63,.16,.74-.16,.35-.27,.74-.31,1.14,0,.06-.03,.1-.03,.16-.03,.47,.18,.82,.24,1.23,0,.09,0,.17,0,.27,0,.02,0,.03,0,.05-.2,.69,.05,1.69,.03,2.38-.01,.33-.13,.68-.19,1-.07,.41-.08,.68-.21,1.04-.17,.45,0,.83-.07,1.24-.05,.21,0,.41,.08,.6,.04,.03,.1,.03,.15,.06,0,.06,0,.11,0,.16-.03-.02-.02-.09-.07-.1,.06,.19,0,.31-.07,.48-.1,.23,.04,.45,.08,.68,.07,.42,.17,1.18-.09,1.44-.12,.13-.13,.32-.15,.5-.15,.29-.5,.39-.79,.38-.41,0-.77-.25-1.05-.61-.42,.13-.93,.06-1.3-.22-.3-.22-.58-.28-.89-.51-.21-.15-.45-.06-.63,.1-.19,.16-.2,.07-.38,.15-.35,.16-.57-.5-.54-.83,.05-.57-.29-.96-.42-1.46-.12-.44,.4-.87,.37-1.33-.02-.18,1.12-.86,1.14-1.34-.04-.57,.26-1.25,.67-2.11,.17-.35,.6-.99,.72-1.34,.09-.28-.1-.95-.05-1.25,.1-.57-.11-1.04-.24-1.89-.04-.31-.86-1.1-1.28-1.25-.64-.23-.45,0-.79,.05-.46,.06-.92,.37-1.38,.89-.22,.25-.64,.58-.92,.77-.14,.1-.25,.23-.35,.37-.1,.11-.18,.23-.28,.33-.18,.15-.18,.23-.48,.21-.03-.01-.18-.08-.46-.07-.71,.03,.24,.01-.33,.02-.38,0-.21,.27-.52-.2-.02-.03-.04-.67-.04-.67,0,0,.12-.26,.33-.33,.53-.2,.83-.14,1.04-.17,.57-.1,.32-.26,.89-.45,.33-.12,.63-.19,.89-.48,.19-.2,.19-.53,.23-.84,.05-.36,0,0,.1-.3,.03-.08,.03-.17,.03-.26,.02-.25,.15-.95,.02-1.13-.09-.12-.11-.61-.14-.83-.08-.35-.33-.44-.59-.66-.49-.42-.44-.36-1.05-.56-.33-.11-.61-.1-.93-.32-.26-.18-.47-.43-.62-.75-.03-.09-.07-.18-.1-.28,0,0,0,0,0,0-.03-.11-.06-.23-.07-.35-.03-.3,.04-.57,.2-.8-.02-.27,.01-.53,.12-.77,.04-.08,.06-.17,.09-.26,.01-.02,.02-.03,.03-.06,0-.02,0-.04,0-.06,.07-.36,.07-.74,.18-1.12,.09-.32,.23-.53,.27-.85,.03-.26,.23-.35,.41-.34,.43,0,.7,.44,1.08,.63,.4,.21,1.06-.18,1.39,.2,.2,.21,.58,.43,.81,.5,.36,.1,.53,.57,.92,.55,.4-.02,.79-.21,1.19-.24,.58-.05,1.15,.07,1.73,.06,.16-.56,.36-.94,.8-1.12,.45-.18,.91-.64,.97-1.27,.02-.23,0-.47-.02-.69-.04-.43-.08-.45,.13-.78,.06-.11,.13-.18,.25-.21,.02-.16,.05-.33,.09-.49,.06-.24,.16-.55,.35-.66,0,.04,.01,.07,.03,.11,.08,.35,.11,.65,.18,.93,.02,.16,.07,.32,.14,.48,.2,.42,.51,.67,.75,1.01,.27,.4,.5,.22,.69-.2,.23-.51,.1-1.15,.15-1.72,.04-.37,.31-1.17,.15-1.46,0-.01,0-.02,0-.03-.02-.05-.04-.08-.05-.12-.01-.14,.03-.28,.01-.46-.04-.2-.12-.4-.15-.61-.02-.1-.04-.32-.06-.54,0-.01,0-.02,0-.03-.01-.04,0-.09-.02-.13-.01-.28,0-.54,.05-.64,.16-.29-.23-1.32-.32-1.61-.06-.17-.11-.29-.18-.38-.2-.49-.56-.43-.91-.67-.24-.18-.42-.54-.68-.69-.24-.15-.56-.21-.82-.15-.3,.07-.57,0-.84,.04-.24,.05-.36,.3-.63,.28-.2-.01-.38,.02-.59,.05-.29,.04-.67,.11-.97,.08-.16-.02-.33-.09-.47-.19-.19-.15-.3-.03-.52-.07-.37-.06-.53-.15-.82,.25-.21,.28-.45,.9-.22,1.22,.06,.09,.12,.17,.19,.24,.09,.14,.23,.25,.43,.31,.12-.33,.47-.12,.63-.09,.23,.05,.11-.18,.31-.19,.29-.01,.58,0,.88,0,.4,0,.84-.12,1.23-.02,.41,.1,.84,.13,1.25,.02,.2,.11,.42,.21,.6,.36,.23,.31,.27,.72,.4,1.24,.12,.51,.16,1.07,.11,1.59-.01,.22-.04,.43-.11,.63,.04,.12,.12,.24,.13,.38,0,.12-.1,.21-.18,.17h0c0-.13,.03-.29-.02-.42-.03-.02-.05-.05-.07-.08-.07-.22-.47-.72-.56-.93-.15-.3-.36-.44-.5-.68-.04-.12-.06-.24-.11-.35-.03-.07-.07-.09-.11-.11-.13-.2-.39-.36-.55-.41-.3-.09-.54-.45-.92-.42-.22,.02-.46,.18-.7,.21,0,0,0-.01,0-.02-.03,0-.07,0-.1,0,0-.03,.02-.06,.02-.1-.46,0-.87-.13-1.29,0-.18,.06-.35,.1-.53,.14-.01-.05,0-.12-.08-.11,0,.02-.02,.03-.02,.05,0-.07,0-.15-.07-.14,0,.29-.44,.38-.53,.67-.1,.32,.02,.69,.22,.96,.02,.03,.04,.05,.07,.07,0,0,0,0,0,0,.17,.24,.37,.11,.51,.21,.02,.02,.03,.03,.04,.05h.02s.04,.05,.05,.09c.23-.15,1.01,.35,1.23,.5,.24,.15,.56,.29,.77,.48,.03,.03,.04,.07,.07,.1,.02,.03,.03,.06,.05,.09,.03,.05,.05,.08,.07,.1,.03,.06,.05,.12,.1,.18,.12,.01,.21,.09,.28,.2,.1,.29-.13,.52-.01,.85-.21,.21-.47,.36-.59,.68-.2,.53-.76,.29-1.15,.2-.37-.08-.62,.13-.98-.09-.32-.19-.63-.43-1-.47-.31-.03-.66,.13-.96,0-.14-.09-.28-.21-.45-.38-.25-.23-.6-.52-.9-.7-.03-.03-.07-.06-.1-.08-.19-.12-.28-.32-.39-.5-.02-.08-.05-.16-.08-.23-.17-.11-.34-.24-.55-.28-.13-.03-.25,.02-.36,.04-.17,0-.34,0-.53-.1-.24-.14-.62-.3-.91-.37-.02-.03-.04-.05-.07-.09-.13,.03-.27,.03-.4,0-.24-.07-.32,.04-.55,.01-.03,0-.05-.02-.08-.02-.06-.02-.11-.05-.17-.07-.11-.06-.22-.1-.33-.12-.13-.04-.25-.06-.39,.02-.28,.14-.34,.44-.69,.44-.21,0-.68-.13-.8,.17-.01,.04-.05,.07-.08,.1-.06,.04-.12,.08-.17,.13-.13,.07-.25,.12-.32,.16-.07,.18-.18,.31-.3,.42-.26,.23-.57,.34-.86,.49-.14,.08-.28,.2-.4,.31-.14,.13-.27,.25-.42,.35-.31,.16-.5,.13-.78,.15-.08-.02-.16,0-.23,.04-.16,.04-.31,.1-.47,.17-.36,.08-.65,.17-1.06,.04-.37-.12-.62,.16-.99,.09-.32-.05-.66-.27-.95-.47-.16-.11-.32-.23-.5-.28-.29-.09-.23-.35-.49-.54,0-.38-.32-.58-.33-.96,.03-.27,.14-.48,.3-.63,.23-.19,.53-.24,.81-.27,.26-.02,.59-.18,.86-.25,.34-.09,.68,.14,1.03,0,.08-.03,.16-.07,.23-.13,.26-.15,.47-.41,.54-.8,.07-.33-.23-.78-.43-1-.3-.31-.67-.21-1.03-.21-.18,0-.79-.2-.45-.44,.33-.15,.68,0,1.01-.11,.03,0,.05-.03,.07-.03,0,0,.01,0,.02,0,.11-.04,.17-.09,.22-.13,.03,0,.08,0,.13,.02,.16,.07,.33,.04,.49,.03,.15-.01,.31-.03,.45,.02,.07,.05-.03,.23,.11,.18,.02,0,.02-.02,.03-.03,0,.02,.03,.03,.07,0,.07-.03,.01-.09-.02-.14,.07,.01,.15,.02,.18,.1-.03,.03-.06,.05-.09,.08,.18,.06,.36,.05,.53,0,.36-.07,.7-.36,.8-.81,.11-.52-.23-.58-.57-.58-.35,0-.63-.37-1.03-.35-.14,0-.31,.03-.46,.1-.04,.02-.06,.02-.1,.03-.1,.05-.21,.11-.3,.16-.1-.07-.23,.05-.33,.05-.14-.07-.25-.19-.39-.25-.16-.07-.35,.09-.4-.15-.05-.25-.23-.23-.42-.3-.2-.07-.39-.09-.59-.03-.24-.16-.22-.38-.5-.18h0c-.16,.03-.32,.16-.47,.26-.17,.09-.34,.19-.48,.35-.15,.15-.3,.22-.39,.34-.06,.04-.13,.09-.2,.12-.07,.35-.07,.8,.2,1.02,.22,.19,.41,.1,.64,.02,.2-.07,.39-.08,.58-.13,.13,.13,.14,.25,.02,.38-.13,.06-.31,.09-.4,.07-.04,.07-.09,.13-.13,.19,0,0-.01,0-.02,.02,0,0-.01,0-.02,.02-.17,.16-.36,.24-.58,.35-.21,.12-.42,.26-.61,.44-.01,.01-.02,.02-.03,.02,0,0,0,.02-.01,.02-.11,.1-.2,.22-.29,.33-.38,.5-.65,1.1-.36,1.85-.28,.4-.35,.95-.45,1.44-.09,.49,.22,.81,.38,1.2,.06,.13,.28,.58,.27,.75,.29,.15,.45,.5,.62,.81,.14,.25,.26,.35,.36,.62,.09,.28,.17,.31,.39,.35,.46,.08,.91,.13,1.37,.23,.34,.08,.58-.13,.86,.23,.24,.31,.61,.38,.95,.46,.25,.06,.39-.11,.62-.14,.21-.03,.43,.04,.63,.09,.15,.03,.28,.03,.4,.01,.02,0,.04,0,.05,0,.04,0,.07-.01,.09-.02,0,0,.01,0,.02,0,.3-.05,.6-.15,.9-.25,.27-.11,.5-.37,.76-.53,.3-.14,.57-.07,.91-.08,.1,0,.21-.03,.33-.06,.11,0,.22,0,.33-.02,.26-.05,.44-.17,.66-.18,.08,0,.16,0,.25,.04,.5,.16,.66,.57,.72,1.06,.03,.58-.06,1.3,.05,1.72,.13,.51-.03,.86,.07,1.35,.01,.07,.04,.16,.07,.26,.03,.13,.07,.25,.09,.38,.03,.2,.02,.38-.13,.48-.25,.17-.56,.08-.82,.07-.11,0-.27-.03-.34,.03-.02,.03-.08,.12-.03,.03,0,0-.13,.13-.13,.14t0,0s-.02,0-.02-.02c-.01,0-.11-.03-.11-.03-.09-.02-.26,.03-.34,0-.16-.05-.32-.17-.32-.17,0,0-.53,.06-.69,.24-.08,.11-.71,.39-.8,.5,0,0,0,0,0,0-.08,.12-.21,.2-.32,.29-.06,.04-.11,.09-.16,.14-.02,.02-.04,.04-.06,.06-.01,.01-.03,.02-.03,.03-.04,.08-.07,.15-.1,.24-.06,.18-.14,.35-.2,.52-.1,.18-.09,.4-.04,.65,.07,.36,.07,.68,.03,1.07,0,.03,0,.08,0,.12,0,.18,0,.36,.05,.54,.23,.68,.86,.8,1.13,1.02s1.16,.54,1.44,.62c.12,.03,.2,.12,.46,.13,.6,.03,.63,.4,.63,.4,0,0,.11,.21,.1,.3-.04,.3-.15,.43-.38,.62-.04,.03-.14,.02-.18,.03-.5-.06-.46-.18-.57-.17-.03,0-.07,0-.12,.03-.05,.02-.25,.02-.33-.11-.13-.02-.2-.28-.32-.35-.17-.1-.37,.04-.56-.06-.05-.03-.09-.06-.13-.08-.25-.16-.48-.32-.77-.28-.29-.24-.73-.1-.95-.48-.11-.19-.26-.15-.38-.3-.11-.13-.12-.35-.21-.5-.07-.11-.16-.21-.23-.33-.02-.03-.04-.07-.06-.11-.01-.03-.03-.06-.03-.09,0-.02-.01-.03-.02-.05,0-.04,0-.07-.01-.11,0-.06,0-.11-.03-.19-.02-.04-.03-.08-.05-.12-.15-.26-.22-.98-.28-1.31,0-.03,0-.04,0-.07,0-.1,0-.19,0-.28,.02-.28,.11-.5,.14-.82,0-.1,0-.18,.03-.27,.07-.26,.16-.52,.23-.75,.02-.04,.03-.09,.04-.13,.03-.08,.04-.18,.06-.27,0-.04,.02-.08,.02-.13,0-.04,0-.08,.01-.12,.01-.1,.02-.2,.02-.3,0-.33-.03-.66-.11-.94-.13-.44-.42-.65-.7-.92-.32-.31-.74-.18-1.12-.12-.03,.08-.08,.13-.13,.18-.11,.06-.23,.12-.33,.18-.3,.09-.63,.13-.67,.52-.05,.24,.05,.54,.14,.83,.08,.32,.14,.65,.02,.81-.24,.28-.59,.36-.77,.61-.16,.2-.18,.04-.3,.32-.08,.19-.19,.33-.32,.46-.24,.26-.38,.73-.51,1.14-.03,.07-.03,.16-.02,.25,0,.28,.14,.6,.24,.81,.05,.09,.08,.18,.09,.27,.03,.26-.02,.54-.11,.8-.28,.86-.31,1.73-.22,2.64,.03,.41,.26,.89-.02,1.25-.21,.28-.2,.78-.46,1-.19,.16-.41,.4-.59,.5-.13,.07-.79,.27-.96,.32-.17,.05-.81,.26-1.3,.13-.22-.06-.38-.39-.51-.51-.08,.03-.26-.24-.31-.27-.36-.16-.22-.14-.56-.37-.01,0-.2-.38-.23-.4-.03-.01-.02-.01-.01,0,0,0-.01,0,.01,0-.04-.02-.12-.56-.17-.57-.03,0-.19-.43-.25-.4-.03,.02-.6,.08-.65,.43-.54,.25-.4,.52-.41,.54-.16,.27,.07,.6,.09,.94,0,.03,.01,.4,.01,.43,.03,.24,.44,.55,.67,.62,.24,.07,.53,.39,.74,.4,.22,.01,.44,.06,.65,.14,.22-.17,.77,.18,.8,.19,.34,.05,.48,0,.58,0,.48,0,.28-.04,.77,0,.96,.07,1.65-.17,1.98-.42,.19-.15,.23-.23,.43-.51,.09-.12,.22-.22,.34-.32,.22-.17,.49-.25,.72-.32,.3,.22,.49,.62,.8,.81,.07,.05,.12,.1,.16,.16,.12,.2,.13,.45,.17,.73,.24,.36,.54,.63,.74,1.03,.22,.47-.21,.85-.26,1.36-.05,.49,.24,.8,.3,1.25,.03,.3-.15,.96-.28,1.15-.1,.16-.1,.39-.13,.58-.03,.27,.13,.4,.03,.61-.13,.26,.03,.27-.22,.43-.16,.12-.34,.23-.52,.31-.2,.07-.39,.1-.59,.05-.26-.07-.38,.02-.64,0-.23,0-.34,.03-.53-.1-.13-.09-.28-.1-.41-.1-.48,.02-.95-.06-1.42-.18-.38-.09-.64,.08-1.02,.06-.41-.03-.8-.13-1.18-.32-.39-.19-.75-.38-1.09-.68-.42-.38-.68,.16-1.01-.26-.04-.09-.09-.22-.14-.28-.05-.1-.09-.18-.14-.15-.05,.02-.09,0-.13-.04-.03-.09-.05-.18-.07-.25-.07-.22-.13-.47-.17-.72-.01,0-.03-.01-.04-.01,0-.03-.02-.07-.03-.11-.1-.02-.19-.08-.26-.19-.11-.36,.15-.61,0-1.01-.02-.04-.04-.08-.05-.12,0,0,0,0,0-.02-.02-.06-.06-.11-.08-.16-.03-.06-.06-.12-.09-.17-.03-.06-.06-.12-.09-.18,0-.02,0-.04-.02-.06,.06-.21,.08-.43,.07-.64-.02-.46-.15-.88-.2-1.33-.05-.5,.18-.87,.12-1.31,0-.03,0-.05,0-.07,.01-.28-.02-.62-.08-.83-.07-.27-.28-.48-.4-.73-.08-.32,.08-.57,.1-1,.01-.21,.04-.41,.16-.57-.09-.2-.07-.45-.04-.65,0-.1,0-.18,0-.24,0-.04,0-.08,.01-.12-.05-.13-.1-.27-.15-.42,.08-.16,.1-.34,.09-.54,0-.02,0-.05-.01-.08,0-.02,0-.03,0-.05-.02-.23-.07-.47-.08-.7-.04-.09-.08,.03-.13,.05,.01-.02,.01-.04,.02-.07,0-.03-.02-.03-.04-.03,.01-.03,.02-.07,.04-.11-.03-.07-.08,0-.12,.02,.13-.36,.26-.71,.25-1.03,.03-.24,0-.48-.16-.67-.13-.16-.3-.29-.39-.48-.03-.03-.04-.06-.05-.1,0,0,0-.02,0-.02,.01-.03,0-.04,0-.06,0-.03,0-.05,.02-.08,.07-.2-.11-.09-.17-.24,0,0,0,0,0-.01,.08-.28,.51-.4,.49-.72,.02-.04,.02-.07,.02-.11,0-.06-.02-.1-.04-.15,.04-.2,.28-.32,.32-.6,.01-.02,.03-.03,.04-.05,0-.14-.02-.28-.05-.43,.03-.22,.09-.36,.13-.66v-.04s.02-.06,.03-.1c.04-.33-.06-.66-.14-.96-.05-.17-.25-.27-.28-.4,.02-.02,.02-.05,.05-.08,.05-.08,.09-.17,.12-.26,.06-.09,.11-.18,.12-.31,.02-.32-.14-.73-.14-1.08,0-.56,.29-1.13,.18-1.64,0,0,.01-.03,.02-.04,.14-.05,.23-.24,.23-.44,.11-.21,.15-.45-.13-.59,.11-.13,.15-.33,.15-.51,0-.43-.18-.34-.4-.55,.05-.07,.11,.07,.14-.07-.25-.09-.26-.44-.15-.71,.09-.15,.21-.24,.36-.19-.01-.04-.02-.09-.03-.13,.03,0,.07-.01,.1,0-.03-.2-.09-.39-.13-.59-.08-.36-.08-.2-.32-.2-.02-.22-.01-.4,.03-.54,.06-.08,.15-.13,.31-.12-.02,.08-.08,.26,.05,.25,.02-.04,.03-.1,.04-.15,.02,0,.02,.01,.03,.01,.1-.2,.16-.41,.21-.62,.05-.21,.09-.43,.14-.63,.14-.13,.28-.24,.43-.37,.28-.25,.62-.3,.91-.56,.03-.03,.05-.08,.08-.11,0,0,0,0,0,0,.25-.23,.4-.57,.47-.96,.05-.03,.09-.07,.14-.14,.14-.13,.29-.44,.27-.56-.04-.24,.14,.09,.02-.25-.06-.14-.11-.28-.2-.4-.09-.12-.2-.18-.34-.19-.22-.02-.2,.04-.17,.11-.05,0-.09,.01-.1,.03-.05-.19-.07-.27-.32-.3-.11,0-.71-.06-.69,.23,.02,.15-.78-.07-.96-.06-.26,.02-.53,.06-.78,.01-.33,.15-.64,.38-.92,.65-.07,.07-.14,.16-.2,.27-.07,.07-.14,.14-.21,.21,0,.11-.01,.2-.03,.28-.03,.11-.07,.21-.1,.32-.04,.12-.09,.24-.13,.36-.09,.28-.05,.6,0,.89,.07,.45,.04,.68,0,1.13-.03,.27-.13,.63-.13,.9,.02,.58,.47,.95,.15,1.44-.32,.5-.33,1.59-.38,2.22-.05,.64,.13,1.31,.02,1.93-.09,.47,.06,.96,.09,1.44,.03,.43-.11,.76-.12,1.16-.02,.59-.05,1.72,.19,2.19,.06,.11,.09,.24,.11,.37,0,.28-.01,.57,.04,.84,0,.01,0,.02,0,.04,.02,.14,.04,.29,.1,.42,.03,.06,.02,.15,.03,.23,0,.07-.01,.13-.03,.21-.09,.31-.1,.64-.16,.96-.03,.1-.03,.19-.03,.29,0,0,0,.03-.01,.04-.03,.24,.03,.47,.06,.7-.03,.32-.15,.62-.1,.95,.02,.07,.04,.16,.05,.24,.01,.13,.03,.27,.07,.43,.01,.07,0,.16,0,.23-.02,.09-.04,.16-.1,.23-.16,.19-.15,.6-.2,.85-.04,.21-.1,.49,0,.7,.07,.26,.25,.44,.33,.69,0,.05,0,.09,0,.14-.06,.33-.2,.57-.21,.94,0,.16-.02,.32-.05,.48-.04,.09-.11-.08-.14,.03,.04,.02,.07,.06,.08,.09,0,0-.03,0-.05,.07,.04,.02,.05,.07,.07,.11-.03,.14-.13,.3-.11,.45,.03,.12,.02,.23-.03,.34,.05,.03,.07,.08,.1,.13,.02,.14,.07,.28,.11,.44,.02,.34,.06,.64,.13,.98,.05,.2,.09,.44,.12,.69,0,.03,0,.06,0,.09,.02,.19,.03,.37,0,.53-.05,.45-.03,.89-.06,1.34-.01,.27-.09,.45,.02,.64,0,.03,0,.05,0,.08,.2,.38,.43,.26,.68,.49,.07,.06,.11,.12,.16,.18,0,.04,0,.08-.04,.12-.33-.09-.62,.26-.59,.68,0,.14,.05,.23,.12,.32,.1,.27,.36,.38,.52,.58,.14-.09,.33-.17,.48-.14,.04,0,.06,.02,.09,.03,.02,.07,.03,.13-.04,.22-.25,.32-.43,.43-.13,.89,0,0,0,.02,0,.02,.07,.13,.15,.24,.21,.32,.27,.38,.61,.69,.95,.98,.04,.03,.06,.06,.08,.08,.01,.17,.08,.27,.19,.39,.01,.02,.01,.03,.03,.05,.1,.12,.2,.23,.3,.34,.26,.26,.55,.59,.88,.48,.19-.07,.4-.07,.6-.11,0-.1,0-.19-.03-.29,.17,.08,.24-.16,.4-.2,.25-.09,.45,.1,.68,.19,.32,.12,.8,.43,1.09,.38,.85-.14,1.65-.61,2.54-.49,.16,.2,.31,.35,.49,.42,.18,.09,.37,.09,.68,.03,.24-.04,.43-.32,.72-.38,.26-.06,.55-.08,.8,.03,.16,.11,.31,.25,.49,.31,.14,.07,.3,.05,.44,.08,.07,.02,.13,.03,.2,.06-.01-.04-.03-.15-.03-.23,0,0,0,.01,.01,0,.02-.03,.04-.03,.07-.05,0,.05-.02,.11,.03,.1,.15-.18,.31-.19,.46-.12,.29,.16,.58,.53,.82,.63,.21,.09,.17,.19,.31,.15,.26,.08,.76-.22,1.03-.3,.25-.08,.36-.04,.46-.34,.06-.17,.18,.13,.31,.05,.15-.1,.28,.16,.43,.23,.13-.14,.3-.24,.47-.31,.18-.08,.33-.06,.47-.02,.12,.07,.24,.12,.37,.15,.66,.12,.98,.18,1.65,.4,.39,.13,1.32,.38,1.75,.18,.21,0,.17-.12,.34-.21,.05,0,.09-.02,.13-.07,.13-.05,.23-.12,.23-.36-.04,.2,.07,.15,.09,.13,.14-.05,.11,.16,.18,0-.02,.22,.13,.54,.18,.5h.08c.15,0,.3-.07,.41-.2,.06-.01,.11-.03,.16-.04,.28,.08,.63-.15,.93-.05,.35,.12,.66,.4,1,.52,.11,.26,.9,.18,1.24-.23,.06-.02,.11-.05,.15-.11-.08-.1-.15,.07-.21-.02,.08-.03,.15-.06,.21-.13,0,0,0,0,.02-.01,.03-.02,.06-.03,.08-.06,.02-.03,.02-.03,.03-.04,.03,0,.06,0,.15-.06,.1-.07,.19-.14,.31-.03,.02-.03,.06-.07,.09-.09,0,0,0,0,.01,0,0,0,.02-.02,.03-.03,.09-.07,.2-.09,.3-.04,.23,.12,.16,.06,.4-.08,.14-.08,.29-.13,.44-.16,.36-.06,.72,.03,1.07,.12,.01-.07,0-.11,0-.13,.04,0,.07,.02,.11,.02,.01-.06,.03-.1,.05-.15t.03,0c.26-.1,.47-.21,.74-.15,.42,.11,.84-.2,1.25,0,.35,.16,.78-.05,1.16,.06,.26,.07,.48,.32,.75,.37,.24,.04,.51-.09,.75-.11,.34-.03,.64-.1,.78-.44,.13-.14,.21-.34,.17-.62,.02-.02,.04-.05,.06-.11,.03-.02,.04-.04,.08-.04,.03-.17,.07-.33,.1-.5,.06-.26,.1-.53,.15-.79,.12-.75,.21-1.52,.29-2.27,.03-.32,.05-.63,.08-.95,.03-.05,.05-.08,.06-.13-.02,0-.03-.02-.04-.03v-.02c-.02-.11,.09-.03,.11-.11-.08,0-.13-.04-.13-.15,.12-.39,0-.89,.07-1.31,.05-.36,.03-.7,0-1.06-.07-.68,.01-1.32-.03-2v-.11c0-.11,0-.22,0-.33,.02-.12,.04-.23,.1-.31-.03-.32-.02-.64,0-.96,0-.23-.09-.72-.07-1.09,.04-.16,.1-.28,.2-.32Zm-14.31-6.44c.19-.05,.17-.17,.37-.1,.22,.07,.3-.09,.52,.04,.26,.15,.33-.03,.57,.18,.15,.13,.27,.47,.15,.77-.12,.32-.38-.04-.62,.02-.21,.04-.58,.23-.71,.02-.15-.23-.32-.2-.39-.49-.05-.19,.05-.2,.11-.44Zm-2.75,1.02c-.31,.07-.91-.61-.59-.88,.19-.38,.43-.45,.72-.35,.24,.09,.45-.05,.68,.03,.28,.08,.22,.12,.49,.31,.14,.1,.04,.18,0,.42-.04,.23-.17,.36-.36,.36-.53,.02-.37-.03-.94,.11Zm6.13,15.11c-.23,1.03-.93,.27-1.4,.27-.15,0-.28,.15-.44,.16-.19,.02-.26-.08-.45,.02-.29,.14-.43,.48-.74,.47-.2-.01-.39,0-.57,.07-.19,.08-.27,.27-.48,.26-.24,0-.4-.24-.6-.38-.3-.2-.72-.03-1.03,.08-.14,.05-.31,.13-.46,.04-.08-.19-.18-.2-.3-.03-.34,.14-.67-.25-1.01-.06-.34,.19-.46,0-.74-.21-.54,.1-1.14,.14-1.67-.05-.61-.21-.83-.72-.77-1.5,.06-.79,.34-.75,.24-1.53-.06-.45,.3-.76,.43-1.15,.17-.48,.33-.61,.69-.86,.62-.44,.73-.33,1.13-.12,.39,.22,.48-.41,.88-.24,.3,.12,.6,.36,.9,.53,.25,.15,.71,.08,1.02,.09,.27,0,.44-.26,.71-.2,.19,.05,.33-.08,.52-.07,.17,0,.32,.13,.49,.12,.35-.03,.59-.26,.94-.26,.49,0,.63,.04,1.04,.4,.24,.21,.45,.2,.64,.45,.54,.73,.24,.41,.7,1.18,.1,.16,.05,.81,.13,.98-.04,.2-.04,.56,0,.77,.07,.3,.27,.45,.21,.77Zm8.44-11.62s.05,.03,.08,.02c-.06,.08-.02,.14,.02,.2-.08-.02-.07-.15-.1-.23Z"/>
        <path class="cls-2" d="M112.1,19.37s-.02,.01-.03,.03c-.05,.09,.01,0,.03-.03Z"/>
        <path class="cls-2" d="M111.06,18.27s.03,.02,.04,.03c.08,.06,.15,.07,.22,.06,.02,0,.05,.01,.07,0,.16-.05,.34-.42,.46-.8,.07-.16,.13-.32,.15-.44,.04-.54-.45-1.41-.87-1.52-.08-.02-.17,0-.26,.02-.09,0-.18,.02-.27,.05-.02,.05-.05,.11-.08,.15-.24,.2-.44,.49-.52,.78-.05,.15-.07,.32,0,.52,.11,.29,.66,.9,1.07,1.15Z"/>
        <path class="cls-2" d="M99.99,6.3s.01,.02,.02,.03c.05,.05,.1,.09,.15,.12,.08,.04,.15,.04,.23,.05h0c.17,0,.35-.07,.51-.17,.03,0,.05-.01,.09-.02,.02-.04,.05-.06,.07-.08,.17-.12,.33-.24,.49-.33,.07-.04,.13-.08,.2-.14,0,0,.02-.02,.03-.03,.03-.02,.06-.05,.08-.08,.02-.02,.03-.04,.05-.07,.02-.03,.04-.06,.05-.1,.01-.02,.02-.05,.03-.08,0,0,0-.02,0-.03,0-.02,0-.03,0-.05,.01-.04,.02-.08,.02-.13,0-.03-.01-.05-.01-.08,0-.03-.01-.08-.02-.11-.02-.05-.05-.1-.08-.15,0-.01,0-.02-.02-.03-.09-.12-.21-.21-.36-.29-.02-.02-.03-.02-.05-.04,0,0-.01,0-.02,0-.31-.15-.67-.22-.87-.2-.31,.02-.62,.07-.79,.42-.13,.23-.18,.63-.09,.91,.04,.27,.13,.52,.26,.68Z"/>
        <path class="cls-2" d="M99.14,5.26c.07-.56-.58-.41-.4,.23,.25,.15,.37-.07,.4-.23Z"/>
      </g>
    </g>
  </g>
</svg>