<?xml version="1.0" encoding="UTF-8"?>
<svg id="_圖層_2" data-name="圖層 2" xmlns="http://www.w3.org/2000/svg" viewBox="0 0 71.16 67.76">
  <defs>
    <style>
      .cls-1 {
        fill: #93725c;
      }
    </style>
  </defs>
  <g id="Content">
    <path class="cls-1" d="M35.48,0C55.24,0,71.16,12.9,71.16,28.92c0,7.8-3.85,14.67-9.88,20.08-9.78,9.67-26.63,19.45-28.4,18.73-2.91-1.15,2.18-7.39,.1-10.09-.31-.42-1.46-.31-3.54-.63C12.28,54.72,0,43.38,0,28.82,0,12.79,15.81,0,35.47,0h0ZM15.19,38.49h6.04c1.04,0,1.66-.83,1.66-1.87,0-.73-.52-1.66-1.87-1.66h-4.89c-.42,0-.42-.42-.42-1.87v-10.51c0-.94-.63-1.87-1.77-1.87-1.04,0-1.77,.83-1.77,1.87v12.69c0,2.81,1.35,3.23,3.02,3.23Zm13.63-1.45v-14.46c0-.94-.73-1.87-1.87-1.87-.94,0-1.77,.83-1.77,1.87v14.46c0,.94,.73,1.66,1.87,1.66,.94,0,1.77-.73,1.77-1.66Zm17.06-1.98v-12.69c0-.94-.73-1.66-1.87-1.66-.83,0-1.77,.52-1.77,1.66v9.15l-6.04-8.43c-.83-1.46-1.87-2.39-3.12-2.39-1.56,0-1.66,1.25-1.66,3.02v13.32c0,.94,.73,1.66,1.77,1.66,.94,0,1.77-.63,1.77-1.66v-9.47l6.04,8.43c1.35,1.77,1.66,2.71,3.33,2.71,1.15,0,1.56-1.04,1.56-3.64h0Zm11.65-7.17h-5.31v-3.02c0-.31,.1-.73,.63-.73h4.68c1.15,0,1.87-.63,1.87-1.77,0-1.35-1.04-1.77-1.98-1.77h-6.04c-1.87,0-2.81,1.25-2.81,2.91v11.75c0,2.08,.83,3.23,2.81,3.23h6.14c1.35,0,1.87-.83,1.87-1.87,0-1.35-1.04-1.77-1.87-1.77h-4.58c-.42,0-.73-.31-.73-.63v-2.91h5.51c1.35,0,1.56-1.04,1.56-1.77,0-1.04-.83-1.66-1.77-1.66Z"/>
  </g>
</svg>