<?xml version="1.0" encoding="UTF-8"?>
<svg id="_圖層_2" data-name="圖層 2" xmlns="http://www.w3.org/2000/svg" viewBox="0 0 62.46 62.16">
  <defs>
    <style>
      .cls-1 {
        fill: #93725c;
      }
    </style>
  </defs>
  <g id="Content">
    <path class="cls-1" d="M62.46,31.23C62.46,13.98,48.48,0,31.23,0S0,13.98,0,31.23c0,15.34,11.07,28.07,25.66,30.7v-23.11h-8.05v-9.31h8.05v-6.87c-.06-.65-.07-1.3-.03-1.95,.46-6.18,5.84-10.82,12.02-10.36,2.4,0,4.8,.11,7.19,.37v8.33h-4.94c-3.88,0-4.63,1.84-4.63,4.53v5.95h7.64v9.31h-7.64v23.34c15.33-1.99,27.18-15.06,27.18-30.94Z"/>
  </g>
</svg>