<?xml version="1.0" encoding="UTF-8"?>
<svg id="_圖層_2" data-name="圖層 2" xmlns="http://www.w3.org/2000/svg" viewBox="0 0 54.97 59.09">
  <defs>
    <style>
      .cls-1 {
        fill: #93725c;
      }
    </style>
  </defs>
  <g id="Content">
    <g id="_7935ec95c421cee6d86eb22ecd1368a9" data-name="7935ec95c421cee6d86eb22ecd1368a9">
      <path class="cls-1" d="M1.85,0H7.17l3.42,10.53h.33L14.19,0h5.36l-6.14,15.42v10.94h-5.28V15.91L1.85,0ZM20.1,11.35c0-1.55,.64-2.78,1.91-3.69,1.27-.92,2.98-1.38,5.12-1.38,1.95,0,3.55,.48,4.8,1.45,1.25,.97,1.87,2.21,1.87,3.73v10.32c0,1.71-.61,3.05-1.84,4.02-1.22,.97-2.91,1.46-5.05,1.46s-3.72-.5-4.96-1.51c-1.24-1-1.86-2.35-1.86-4.05V11.35Zm4.86,10.73c0,.55,.17,.97,.5,1.28,.34,.3,.82,.45,1.44,.45s1.15-.15,1.52-.46c.38-.31,.57-.73,.57-1.27V11.2c0-.44-.19-.79-.58-1.06-.38-.27-.89-.4-1.51-.4-.57,0-1.04,.14-1.4,.4-.36,.27-.54,.62-.54,1.06v10.88h0ZM51.07,6.6V26.58h-4.73v-2.2c-.87,.81-1.78,1.43-2.72,1.86-.94,.42-1.86,.63-2.74,.63-1.09,0-1.92-.3-2.47-.89-.55-.59-.83-1.49-.83-2.67V6.6h4.73v15.31c0,.48,.1,.82,.3,1.03,.2,.21,.52,.32,.96,.32,.35,0,.79-.14,1.32-.42,.53-.28,1.02-.64,1.46-1.07V6.6h4.73Zm-4.43,35.35c-.23-.26-.6-.39-1.11-.39s-.91,.13-1.14,.39c-.23,.26-.35,.69-.35,1.29v1.24h2.95v-1.24c0-.6-.12-1.03-.35-1.29Zm-13.97,9.36c.25,.1,.52,.15,.81,.15,.41,0,.71-.1,.9-.3,.19-.2,.29-.53,.29-.99v-7.19c0-.48-.12-.85-.35-1.1-.24-.25-.59-.38-1.04-.38-.24,0-.47,.05-.71,.14-.23,.1-.46,.24-.69,.44v8.72c.27,.24,.54,.4,.79,.51Zm21.93-15.22c0-3.46-3.56-6.27-7.94-6.27-6.25-.21-12.65-.3-19.18-.29-6.53-.01-12.92,.08-19.18,.29-4.38,0-7.94,2.81-7.94,6.27C.1,38.83,0,41.57,0,44.31c-.01,2.74,.1,5.48,.37,8.22,0,3.46,3.56,6.27,7.94,6.27,6.25,.21,12.65,.3,19.18,.29,6.53,0,12.93-.08,19.18-.29,4.38,0,7.94-2.81,7.94-6.27,.26-2.74,.38-5.48,.36-8.22,.01-2.74-.1-5.48-.36-8.22ZM11.9,53.54v.21h-3.76v-16.61h-3.89v-3.02H15.79v3.02h-3.89v16.4h0Zm13.36-14.12v14.33h-3.33v-1.58c-.62,.59-1.25,1.03-1.92,1.33-.67,.3-1.31,.46-1.94,.46-.77,0-1.35-.21-1.74-.64-.39-.43-.59-1.07-.59-1.92v-12.18h3.34v10.98c0,.34,.07,.59,.21,.74,.14,.15,.37,.23,.68,.23,.25,0,.56-.1,.93-.3,.37-.2,.72-.46,1.03-.77v-10.88h3.33v.2Zm12.84,3.41v7.95c0,1.02-.26,1.8-.78,2.34-.52,.54-1.28,.81-2.27,.81-.65,0-1.23-.1-1.74-.31-.51-.21-.99-.53-1.43-.97v1.1h-3.37v-19.63h3.37v6.25c.45-.44,.93-.77,1.43-1,.51-.23,1.02-.34,1.53-.34,1.05,0,1.86,.31,2.42,.92,.56,.61,.83,1.5,.83,2.67v.21h0Zm12.33,.44v3.65h-6.38v2.5c0,.75,.11,1.28,.33,1.57,.22,.29,.6,.44,1.13,.44s.94-.12,1.16-.37c.22-.25,.33-.79,.33-1.63v-1h3.43v1.28c0,1.47-.42,2.57-1.25,3.32-.84,.74-2.08,1.11-3.74,1.11-1.49,0-2.67-.4-3.53-1.18-.86-.79-1.29-1.87-1.29-3.25v-6.64c0-1.24,.47-2.26,1.41-3.04,.94-.78,2.16-1.17,3.65-1.17s2.7,.36,3.52,1.09c.82,.72,1.23,1.77,1.23,3.13v.2h0Z"/>
    </g>
  </g>
</svg>