<?xml version="1.0" encoding="UTF-8"?>
<svg id="_圖層_2" data-name="圖層 2" xmlns="http://www.w3.org/2000/svg" viewBox="0 0 27.29 29.34">
  <defs>
    <style>
      .cls-1 {
        fill: #fff;
      }
    </style>
  </defs>
  <g id="content">
    <g id="_7935ec95c421cee6d86eb22ecd1368a9" data-name="7935ec95c421cee6d86eb22ecd1368a9">
      <path class="cls-1" d="M.92,0H3.56l1.7,5.23h.16L7.04,0h2.66l-3.05,7.66v5.43h-2.62V7.9L.92,0ZM9.98,5.64c0-.77,.32-1.38,.95-1.83,.63-.46,1.48-.68,2.54-.68,.97,0,1.76,.24,2.38,.72,.62,.48,.93,1.1,.93,1.85v5.12c0,.85-.3,1.51-.91,2-.61,.48-1.44,.72-2.51,.72s-1.85-.25-2.46-.75c-.61-.5-.92-1.17-.92-2.01V5.64Zm2.41,5.33c0,.27,.08,.48,.25,.63,.17,.15,.41,.22,.71,.22s.57-.07,.76-.23c.19-.15,.28-.36,.28-.63V5.56c0-.22-.1-.39-.29-.52-.19-.13-.44-.2-.75-.2-.29,0-.52,.07-.7,.2-.18,.13-.27,.31-.27,.52v5.4h0ZM25.36,3.28V13.19h-2.35v-1.09c-.43,.4-.88,.71-1.35,.92-.47,.21-.92,.32-1.36,.32-.54,0-.95-.15-1.23-.44-.28-.3-.41-.74-.41-1.33V3.28h2.35v7.6c0,.24,.05,.41,.15,.51,.1,.1,.26,.16,.48,.16,.17,0,.39-.07,.65-.21,.26-.14,.51-.32,.73-.53V3.28h2.35Zm-2.2,17.55c-.12-.13-.3-.19-.55-.19s-.45,.07-.57,.19c-.11,.13-.17,.34-.17,.64v.62h1.46v-.62c0-.3-.06-.51-.17-.64Zm-6.94,4.65c.13,.05,.26,.08,.4,.08,.2,0,.35-.05,.45-.15,.1-.1,.14-.26,.14-.49v-3.57c0-.24-.06-.42-.18-.55-.12-.12-.29-.19-.51-.19-.12,0-.23,.02-.35,.07-.12,.05-.23,.12-.34,.22v4.33c.13,.12,.27,.2,.39,.25Zm10.89-7.56c0-1.72-1.77-3.11-3.94-3.11-3.1-.1-6.28-.15-9.52-.14-3.24,0-6.42,.04-9.52,.14-2.18,0-3.94,1.39-3.94,3.11C.05,19.28,0,20.64,0,22c0,1.36,.05,2.72,.18,4.08,0,1.72,1.77,3.11,3.94,3.11,3.11,.1,6.28,.15,9.52,.14,3.24,0,6.42-.04,9.52-.14,2.18,0,3.94-1.39,3.94-3.11,.13-1.36,.19-2.72,.18-4.08,0-1.36-.05-2.72-.18-4.08ZM5.91,26.58v.1h-1.86v-8.25h-1.93v-1.5H7.84v1.5h-1.93v8.14h0Zm6.63-7.01v7.12h-1.66v-.79c-.31,.29-.62,.51-.95,.66-.33,.15-.65,.23-.96,.23-.38,0-.67-.11-.86-.32-.19-.21-.29-.53-.29-.95v-6.05h1.66v5.45c0,.17,.03,.29,.1,.37,.07,.08,.18,.11,.34,.11,.12,0,.28-.05,.46-.15,.19-.1,.36-.23,.51-.38v-5.4h1.66v.1Zm6.37,1.69v3.95c0,.51-.13,.89-.39,1.16-.26,.27-.63,.4-1.12,.4-.32,0-.61-.05-.87-.15-.25-.1-.49-.27-.71-.48v.55h-1.67v-9.75h1.67v3.1c.22-.22,.46-.38,.71-.49,.25-.11,.51-.17,.76-.17,.52,0,.92,.15,1.2,.46,.28,.3,.41,.75,.41,1.33v.1h0Zm6.12,.22v1.81h-3.17v1.24c0,.37,.05,.63,.16,.78,.11,.14,.3,.22,.56,.22s.47-.06,.58-.18c.11-.12,.16-.39,.16-.81v-.49h1.7v.64c0,.73-.21,1.28-.62,1.65-.41,.37-1.03,.55-1.86,.55-.74,0-1.32-.2-1.75-.59-.43-.39-.64-.93-.64-1.61v-3.3c0-.62,.23-1.12,.7-1.51,.47-.39,1.07-.58,1.81-.58s1.34,.18,1.75,.54c.41,.36,.61,.88,.61,1.55v.1h0Z"/>
    </g>
  </g>
</svg>