<?xml version="1.0" encoding="UTF-8"?>
<svg id="_圖層_2" data-name="圖層 2" xmlns="http://www.w3.org/2000/svg" viewBox="0 0 568.74 387.55">
  <defs>
    <style>
      .cls-1, .cls-2 {
        fill: #f9c88f;
      }

      .cls-3 {
        fill: none;
        stroke: #ddb57c;
        stroke-miterlimit: 10;
        stroke-width: .75px;
      }

      .cls-2 {
        opacity: .3;
      }
    </style>
  </defs>
  <g id="liquid">
    <g>
      <rect class="cls-3" x="525.78" y=".37" width="42.58" height="42.58" rx="21.29" ry="21.29" transform="translate(568.74 -525.41) rotate(90)"/>
      <rect class="cls-3" x="57.13" y=".38" width="42.58" height="42.58" rx="21.29" ry="21.29" transform="translate(100.08 -56.75) rotate(90)"/>
      <rect class="cls-3" x="525.78" y="278.09" width="42.58" height="42.58" rx="21.29" ry="21.29" transform="translate(846.45 -247.69) rotate(90)"/>
      <path class="cls-3" d="M60.28,299.39V28.47c-.01-13.81,11.18-25,24.99-25h454.47c13.81,0,25,11.19,25,25V291.81c0,13.81-11.19,25-25,25H75.58"/>
    </g>
    <line class="cls-3" x1="59.46" y1="319.59" x2=".28" y2="387.31"/>
    <g>
      <circle class="cls-2" cx="66.55" cy="310.19" r="11.77"/>
      <circle class="cls-1" cx="66.55" cy="310.19" r="7.09"/>
    </g>
  </g>
</svg>