<?xml version="1.0" encoding="UTF-8"?>
<svg id="_圖層_2" data-name="圖層 2" xmlns="http://www.w3.org/2000/svg" viewBox="0 0 672.42 421.65">
  <defs>
    <style>
      .cls-1 {
        fill: none;
        stroke: #ddb57c;
        stroke-miterlimit: 10;
      }
    </style>
  </defs>
  <g id="content">
    <g>
      <rect class="cls-1" x="616" y=".5" width="55.92" height="55.92" rx="27.96" ry="27.96" transform="translate(672.42 -615.5) rotate(90)"/>
      <rect class="cls-1" x=".5" y=".5" width="55.92" height="55.92" rx="27.96" ry="27.96" transform="translate(56.92 0) rotate(90)"/>
      <rect class="cls-1" x=".5" y="365.23" width="55.92" height="55.92" rx="27.96" ry="27.96" transform="translate(421.65 364.73) rotate(90)"/>
      <rect class="cls-1" x="616" y="365.23" width="55.92" height="55.92" rx="27.96" ry="27.96" transform="translate(1037.15 -250.77) rotate(90)"/>
      <g>
        <path class="cls-1" d="M4.65,385.03l-.02-347.63c0-18.13,14.7-32.83,32.83-32.83H634.32c18.13,0,32.83,14.7,32.83,32.83V383.25c0,18.13-14.7,32.83-32.83,32.83H36.9"/>
        <path class="cls-1" d="M667.12,27.44l.02,355.8c0,18.13-14.7,32.83-32.83,32.83H37.44c-18.13,0-32.83-14.7-32.83-32.83V37.4c0-18.13,14.7-32.83,32.83-32.83H647.02"/>
      </g>
    </g>
  </g>
</svg>