<?xml version="1.0" encoding="UTF-8"?>
<svg id="_圖層_2" data-name="圖層 2" xmlns="http://www.w3.org/2000/svg" viewBox="0 0 20.01 14.76">
  <defs>
    <style>
      .cls-1 {
        fill: none;
        stroke: #3b3b3b;
        stroke-linecap: round;
        stroke-miterlimit: 10;
        stroke-width: .76px;
      }
    </style>
  </defs>
  <g id="content">
    <g>
      <path class="cls-1" d="M10.7,10.7l1.25-1.25c2.07-2.08,2.07-5.44,0-7.51C9.87-.14,6.51-.14,4.44,1.93L1.93,4.44C-.14,6.52-.14,9.88,1.93,11.95c.96,.96,2.2,1.48,3.46,1.55"/>
      <path class="cls-1" d="M9.31,4.05l-1.25,1.25c-2.07,2.08-2.07,5.44,0,7.51,2.07,2.08,5.44,2.08,7.51,0l2.5-2.5c2.07-2.08,2.07-5.44,0-7.51-.96-.96-2.2-1.48-3.46-1.55"/>
    </g>
  </g>
</svg>